<svg xmlns="http://www.w3.org/2000/svg" viewBox="0 0 1342.98 2223.39"><defs><style>.cls-1{fill:#33ab8b;}</style></defs><g id="Layer_1" data-name="Layer 1"><polygon class="cls-1" points="649.78 815.71 649.78 690.66 541.48 628.14 433.19 565.61 433.19 565.61 324.89 503.09 216.59 565.61 216.59 565.61 216.59 565.61 216.59 565.61 108.3 628.14 0 690.66 0 815.71 108.3 878.24 216.59 940.76 216.59 940.76 324.89 1003.28 324.89 878.24 433.19 940.76 433.19 940.76 541.48 1003.28 433.19 1065.81 433.19 1065.81 324.89 1128.34 324.89 1128.34 216.59 1065.81 216.59 1065.81 108.3 1003.28 108.3 878.24 0 940.76 0 1065.81 108.3 1128.34 216.59 1190.86 216.59 1190.86 324.89 1253.38 433.19 1190.86 433.19 1190.86 433.19 1190.86 541.48 1128.34 649.78 1065.81 649.78 940.76 541.48 878.24 433.19 815.71 433.19 815.71 324.89 753.19 324.89 878.24 216.59 815.71 216.59 815.71 108.3 753.19 216.59 690.66 216.59 690.66 324.89 628.14 324.89 628.14 433.19 690.66 433.19 690.66 541.48 753.19 541.48 878.24 649.78 815.71"/><text x="-1149.89" y="128.23"/><text x="-1149.89" y="128.23"/><text x="-1149.89" y="128.23"/></g></svg>