<svg id="Layer_1" data-name="Layer 1" xmlns="http://www.w3.org/2000/svg" viewBox="0 0 989.31 623.84"><defs><style>.cls-1{fill:#e6e6e6;}.cls-2{fill:#fff;}.cls-3{fill:#f2f2f2;}.cls-4{fill:#ffb8b8;}.cls-5{fill:#3f3d56;}.cls-6{fill:#2f2e41;}.cls-7{fill:#ccc;}.cls-8{fill:#00a9a1;}.cls-9{fill:#ffb6b6;}.cls-10{fill:#00aaa2;}.cls-11{fill:#fd6584;}.cls-12{fill:#e4e4e4;}</style></defs><path class="cls-1" d="M587,19.14C658.25-19,748.65,1,796.57,68.58l-1.63,1.16C747.61,3,658.32-16.73,588,20.9A162.25,162.25,0,0,0,570.7,31.59c-72.33,51.31-89.44,151.9-38.14,224.24L530.93,257C479,183.75,496.31,81.91,569.55,30A163.43,163.43,0,0,1,587,19.14Z" transform="translate(0 0)"/><path class="cls-1" d="M964.33,182,730.08,163.8A13.78,13.78,0,0,1,717.43,149L727.59,35.2a13.77,13.77,0,0,1,14.78-12.65L976.62,40.77a13.78,13.78,0,0,1,12.65,14.79L979.11,169.37A13.77,13.77,0,0,1,964.33,182Z" transform="translate(0 0)"/><path class="cls-2" d="M909,156.31c-1.78,0-3.57-.07-5.36-.21L752.26,144.32A23.12,23.12,0,0,1,731,119.48h0l3.45-44.37A23.15,23.15,0,0,1,759.3,53.85L955.06,69.08a23.14,23.14,0,0,1,21.25,24.84A67.63,67.63,0,0,1,909,156.31Z" transform="translate(0 0)"/><path class="cls-1" d="M950.37,104.35,758.47,89.42a3,3,0,1,1,.47-6.08L950.85,98.27a3,3,0,0,1-.48,6.08Z" transform="translate(0 0)"/><path class="cls-1" d="M870.69,110.26l-113.16-8.81a3,3,0,0,1,.47-6.08l113.16,8.8a3.05,3.05,0,0,1-.46,6.09Z" transform="translate(0 0)"/><path class="cls-1" d="M895.62,124.3l-139-10.81a3.05,3.05,0,1,1,.46-6.09h0l139,10.81a3.05,3.05,0,0,1-.47,6.09Z" transform="translate(0 0)"/><path class="cls-1" d="M948.65,336.52,714.4,318.3a13.76,13.76,0,0,1-12.64-14.79L711.91,189.7a13.77,13.77,0,0,1,14.78-12.65l234.25,18.22a13.78,13.78,0,0,1,12.65,14.79L963.44,323.87A13.78,13.78,0,0,1,948.65,336.52Z" transform="translate(0 0)"/><path class="cls-2" d="M893.26,310.81c-1.75,0-3.52-.07-5.29-.21L736.58,298.82A23.12,23.12,0,0,1,715.32,274h0l3.46-44.37a23.12,23.12,0,0,1,24.84-21.26h0l195.76,15.23a23.12,23.12,0,0,1,21.26,24.84h0A67.73,67.73,0,0,1,893.26,310.81Z" transform="translate(0 0)"/><path class="cls-1" d="M934.7,258.85,742.79,243.92a3,3,0,1,1,.48-6.08h0l191.9,14.93a3,3,0,1,1-.47,6.08Z" transform="translate(0 0)"/><path class="cls-1" d="M855,264.76,741.86,256a3.05,3.05,0,1,1,.47-6.09l113.16,8.8a3.05,3.05,0,1,1-.48,6.09Z" transform="translate(0 0)"/><path class="cls-1" d="M879.94,278.8,740.92,268a3.05,3.05,0,1,1,.47-6.09h0l139,10.81a3.05,3.05,0,1,1-.47,6.09Z" transform="translate(0 0)"/><path class="cls-1" d="M352.79,277.06a56.09,56.09,0,0,1,102.63-45.29h0l-1.84.81a54.08,54.08,0,1,0-99,43.65v0Z" transform="translate(0 0)"/><path class="cls-3" d="M934.15,589.84c22.9-10.85,40-32.69,37.29-56.68-20.54,16.64-48.51,25.93-77.39,25.7-11.24-.08-23.84-1.23-32,5.08-5.09,3.93-7.38,10.17-7.67,16.38s1.22,12.5,2.71,18.71l-.45,1.47C883.52,602.21,911.25,600.69,934.15,589.84Z" transform="translate(0 0)"/><path class="cls-2" d="M970.88,533.1c-8.86,17.28-24.21,31.69-43.3,40.12a45.79,45.79,0,0,1-13.2,3.88,29.78,29.78,0,0,1-13.74-1.8c-4.15-1.49-8.24-3.42-12.63-4a16.15,16.15,0,0,0-12.22,3.29c-4.07,3.16-6.49,7.54-8.69,11.9-2.44,4.84-4.88,9.92-9.66,13.22-.58.4.23,1.23.8.83,8.32-5.74,9.51-16.13,16.12-23.09a15.53,15.53,0,0,1,12.49-5.22c4.49.33,8.71,2.33,12.89,3.87a32,32,0,0,0,13.4,2.19,42.93,42.93,0,0,0,13.37-3.39,92.18,92.18,0,0,0,25.29-15.74A86.29,86.29,0,0,0,972,533.49c.31-.6-.83-1-1.13-.39Z" transform="translate(0 0)"/><path class="cls-2" d="M934,570.78a18,18,0,0,0,20.17,5.13c.66-.28.12-1.26-.55-1a16.61,16.61,0,0,1-18.75-4.8c-.46-.57-1.33.09-.87.65Z" transform="translate(0 0)"/><path class="cls-2" d="M902.65,576.3A24.17,24.17,0,0,1,913,559.48c.58-.4-.22-1.23-.8-.83a25.07,25.07,0,0,0-10.75,17.52c-.08.67,1.1.79,1.18.13Z" transform="translate(0 0)"/><path class="cls-2" d="M958.75,551.23a8.14,8.14,0,0,1-3.14-7.29c.09-.67-1.1-.79-1.19-.13a9.14,9.14,0,0,0,3.46,8.07.68.68,0,0,0,.84.09.49.49,0,0,0,.09-.68l-.06-.06Z" transform="translate(0 0)"/><path class="cls-3" d="M895.89,482.43c-.07.42-.14.83-.22,1.25A90.38,90.38,0,0,1,891.19,500c-.14.41-.3.82-.46,1.23a98.09,98.09,0,0,1-22.51,34A102.67,102.67,0,0,1,855.34,546c-6.38,4.52-13.75,8.93-17.79,15a14.72,14.72,0,0,0-1.14,2l18.19,36.81.25.21.65,1.5.77-.47.44-.28.28-.17.09-.06.25-.15q2.17-1.37,4.32-2.77h0c10.91-7.14,21.18-15.2,29.61-24.5.25-.28.52-.57.76-.86a91.64,91.64,0,0,0,10-13.49,79.79,79.79,0,0,0,4.26-8.08A65.11,65.11,0,0,0,912,527.92c1-15.71-3.63-32-15.22-44.54C896.49,483.06,896.19,482.75,895.89,482.43Z" transform="translate(0 0)"/><path class="cls-2" d="M895.42,482.68c5.07,19.44,3.32,39.93-5.26,57.37a35.86,35.86,0,0,1-7.26,10.41,24.23,24.23,0,0,1-11.5,5.89c-4.11,1-8.48,1.53-12.18,3.4a12.84,12.84,0,0,0-6.91,9.38c-.91,4.88.24,9.89,1.55,14.78,1.45,5.42,3.06,11,1.71,16.42-.16.65,1,.92,1.17.27,2.33-9.35-3.8-18.81-3.57-28.27.11-4.41,1.72-8.72,5.82-11.16,3.59-2.14,8.1-2.72,12.27-3.68a26.31,26.31,0,0,0,11.52-5.36A33.52,33.52,0,0,0,890.49,542a78.5,78.5,0,0,0,8.28-27,86.87,86.87,0,0,0-2.23-32.66c-.18-.67-1.29-.39-1.12.28Z" transform="translate(0 0)"/><path class="cls-2" d="M893.3,534.54c7.49,2.34,15.43-.46,18.56-6.52.31-.6-.76-1.14-1.07-.54-2.94,5.68-10.28,8.23-17.28,6-.74-.23-.94.79-.21,1Z" transform="translate(0 0)"/><path class="cls-2" d="M873.58,556.1A25.57,25.57,0,0,1,870,536.25c.16-.65-1-.92-1.17-.27a26.65,26.65,0,0,0,3.81,20.65C873,557.25,874,556.71,873.58,556.1Z" transform="translate(0 0)"/><path class="cls-2" d="M898.61,504.6a10.09,10.09,0,0,1-7.28-4.49c-.39-.62-1.36-.08-1,.53a11.3,11.3,0,0,0,8,5c.33,0,.63-.08.69-.38A.57.57,0,0,0,898.61,504.6Z" transform="translate(0 0)"/><path class="cls-4" d="M934.51,328.47l-13.92-74.1-27.32-36L873,231.64c2.86,15.52,24.5,44.5,24.5,44.5l19.19,57.3a9.21,9.21,0,0,0-.2.91,10.69,10.69,0,1,0,18-5.88Z" transform="translate(0 0)"/><path class="cls-5" d="M873.56,239.47l22.93-18.6,0-.1c4.29-9.72-5.23-26.38-14-38.64a19.59,19.59,0,0,0-26.23-5.3h0a19.65,19.65,0,0,0-9.13,18.61L849.13,214Z" transform="translate(0 0)"/><polygon class="cls-4" points="792.54 608.22 777.28 608.22 770.03 549.38 792.54 549.38 792.54 608.22"/><path class="cls-6" d="M796.43,603.24h-4.29l-16.77-6.82-9,6.82h0a19.14,19.14,0,0,0-19.14,19.14V623h49.18Z" transform="translate(0 0)"/><polygon class="cls-4" points="860.22 608.22 844.97 608.22 837.71 549.38 860.23 549.38 860.22 608.22"/><path class="cls-6" d="M864.11,603.24h-4.29l-16.76-6.82-9,6.82h0a19.14,19.14,0,0,0-19.14,19.14V623h49.18Z" transform="translate(0 0)"/><path class="cls-6" d="M883.48,354.8s1.78,21.37-2.67,41.85-4.45,78.17-4.45,78.17l-9.8,112.41-29.39-2.67-8-187.91-28.5,63.23,2.67,8.91L799.77,471s2.67,17.37.89,17.37-6.24,2.67-6.24,2.67L798,582.78l-30.28-.89L757,452.76l11.58-73.92.89-14.25,4,.17,2-6,3.74-10.24Z" transform="translate(0 0)"/><path class="cls-5" d="M885,359.28l.16-.22c8.48-11.87-4.27-40.38-6.2-44.52l8.1-2.63-1.82-15.5-.86-6.91,6.19-6.19v-.15L894.16,252l5.18-20.71a45.43,45.43,0,0,0-12.9-44.05l-12-11.28-14.55-21.53H836.46l-8.05,15.19A34.21,34.21,0,0,0,802,204.53l1.83,39.86L796.64,294v9l-8,8.93,1.75,8.77-6.11,2.62-2.7,12.59c-1.12,1.48-8.49,11.31-8.49,14,0,.4.3.79.94,1.22,5,3.41,32.8,10.34,45.09,5.42,13.09-5.23,65.15,2.62,65.67,2.7Z" transform="translate(0 0)"/><path class="cls-7" d="M681,622.65a1.2,1.2,0,0,0,1.18,1.19h280.3a1.19,1.19,0,1,0,0-2.38H682.17a1.17,1.17,0,0,0-1.19,1.18Z" transform="translate(0 0)"/><circle class="cls-4" cx="845.16" cy="116.39" r="31.07"/><path class="cls-6" d="M842.18,148a85.35,85.35,0,0,0,14.35-1.37c4.68-1.08,15-9.08,17.84-13.8h0c2.1-3.51,3.35-8.94,4-12.88A37.79,37.79,0,0,0,871,90.11a11.86,11.86,0,0,0-4.93-4,4.64,4.64,0,0,0-.53-.16,14.74,14.74,0,0,1-7.44-4.35,13.1,13.1,0,0,0-1.25-1.22,18.1,18.1,0,0,0-7.66-3.6c-4.53-1.09-11,.27-19.26,4-4.14,1.9-8.74,1.37-12.28.7a1.14,1.14,0,0,0-1.08.4,8.16,8.16,0,0,1-5.48,2.35c-1.25.09-2.53,1.86-4.07,4.18-.35.53-.76,1.14-1,1.51l-.06-.7-.69.8a9.9,9.9,0,0,0,4.87,16,19.65,19.65,0,0,0,3.89.51c.8,0,1.62.11,2.41.22a14.9,14.9,0,0,1,11.32,9.38,3.9,3.9,0,0,0,5,2.23,4.28,4.28,0,0,0,.89-.49,6.43,6.43,0,0,1,5.83-1.22,4.33,4.33,0,0,1,2,2.1,5.62,5.62,0,0,0,2.17,2.41c3.24,1.56,3.65,8.85,2.66,15-1,5.88-3,10.18-5,10.44-1.55.2-1.73.32-1.83.6l-.1.24.18.23A6.34,6.34,0,0,0,842.18,148Z" transform="translate(0 0)"/><circle class="cls-8" cx="500.67" cy="246.35" r="61.79"/><path class="cls-4" d="M835,237.16l-20.38-13c-13,9-30.52,40.61-30.52,40.61l-44.39,41a10.68,10.68,0,1,0,11.84,14.19l61.87-43.1Z" transform="translate(0 0)"/><path class="cls-5" d="M833.08,242.45l13.58-32.58-4.91-18a19.64,19.64,0,0,0-15.24-14.05h0A19.59,19.59,0,0,0,804,192.23c-3.72,14.59-6.57,33.57.94,41.08l.07.07Z" transform="translate(0 0)"/><path class="cls-3" d="M42.56,605C16,591.35-3.29,565,.74,536.82,24.32,557.19,56.92,569.18,91,570c13.25.32,28.13-.56,37.52,7.18,5.85,4.82,8.31,12.25,8.42,19.58S135,611.44,133,618.69l.48,1.75C101.74,621.45,69.13,618.62,42.56,605Z" transform="translate(0 0)"/><path class="cls-2" d="M1.4,536.77c9.79,20.69,27.34,38.24,49.51,48.88a53.74,53.74,0,0,0,15.41,5.06,35.15,35.15,0,0,0,16.25-1.6c4.94-1.6,9.83-3.73,15-4.26a19.09,19.09,0,0,1,14.27,4.34c4.67,3.88,7.36,9.12,9.79,14.34,2.69,5.8,5.38,11.87,10.88,15.94.67.49-.31,1.44-1,.95-9.57-7.08-10.6-19.36-18.12-27.81-3.51-3.93-8.46-6.87-14.52-6.61-5.3.22-10.34,2.41-15.33,4.07a37.89,37.89,0,0,1-15.87,2.09,50.48,50.48,0,0,1-15.62-4.51,108.33,108.33,0,0,1-29.2-19.48,101.51,101.51,0,0,1-22.86-31c-.33-.71,1-1.13,1.35-.42Z" transform="translate(0 0)"/><path class="cls-2" d="M43.47,582.54c-5.82,6.65-16.08,8.89-23.94,5.29-.77-.36-.1-1.49.68-1.13a19.56,19.56,0,0,0,22.26-5C43,581.09,44,581.89,43.47,582.54Z" transform="translate(0 0)"/><path class="cls-2" d="M80.16,590.21A28.39,28.39,0,0,0,68.57,570c-.66-.5.32-1.45,1-.95a29.52,29.52,0,0,1,12,21C81.63,590.89,80.23,591,80.16,590.21Z" transform="translate(0 0)"/><path class="cls-2" d="M15,558.58a9.6,9.6,0,0,0,4-8.47c-.08-.79,1.32-.89,1.4-.1A10.73,10.73,0,0,1,16,559.38a.8.8,0,0,1-1,.08.57.57,0,0,1-.07-.81l.06-.07Z" transform="translate(0 0)"/><path class="cls-3" d="M91.64,479.88c.07.49.13,1,.21,1.48a107.5,107.5,0,0,0,4.66,19.36c.16.49.33,1,.5,1.46a115.69,115.69,0,0,0,25.26,40.88A120.74,120.74,0,0,0,137,556.23c7.34,5.56,15.86,11,20.39,18.35a18.44,18.44,0,0,1,1.27,2.36l-22.8,42.68-.31.24-.82,1.73c-.3-.18-.59-.39-.89-.58l-.5-.33a3.15,3.15,0,0,0-.33-.22l-.1-.07c-.11-.06-.2-.13-.29-.19-1.67-1.13-3.34-2.27-5-3.42l0,0c-12.59-8.81-24.38-18.69-34-30-.28-.34-.58-.68-.86-1a107.45,107.45,0,0,1-11.31-16.27,90.93,90.93,0,0,1-4.72-9.67A77,77,0,0,1,71,532.87c-.62-18.55,5.48-37.51,19.6-51.9Z" transform="translate(0 0)"/><path class="cls-2" d="M92.18,480.2c-6.7,22.7-5.41,46.91,4,67.78a42.45,42.45,0,0,0,8.16,12.53,28.64,28.64,0,0,0,13.33,7.36c4.81,1.3,9.94,2.13,14.22,4.47a15.13,15.13,0,0,1,7.8,11.31c.88,5.77-.65,11.64-2.38,17.35-1.91,6.33-4,12.89-2.63,19.28.16.77-1.22,1.05-1.39.27-2.4-11.1,5.18-22,5.26-33.17,0-5.2-1.7-10.33-6.44-13.37-4.14-2.65-9.43-3.5-14.31-4.78a31,31,0,0,1-13.38-6.75,39.53,39.53,0,0,1-8.7-12.17A92.72,92.72,0,0,1,87,518.22a102.35,102.35,0,0,1,3.86-38.4c.23-.78,1.53-.4,1.3.38Z" transform="translate(0 0)"/><path class="cls-2" d="M92.74,541.37c-8.9,2.48-18.15-1.12-21.62-8.38-.35-.72.93-1.31,1.28-.59,3.25,6.8,11.81,10.07,20.13,7.75.88-.24,1.08,1,.21,1.22Z" transform="translate(0 0)"/><path class="cls-2" d="M115.16,567.5a30.15,30.15,0,0,0,5-23.25c-.16-.77,1.22-1,1.39-.27a31.43,31.43,0,0,1-5.26,24.19c-.49.7-1.61,0-1.13-.67Z" transform="translate(0 0)"/><path class="cls-2" d="M87.6,505.89a11.82,11.82,0,0,0,8.75-5c.48-.71,1.6-.05,1.13.66a13.28,13.28,0,0,1-9.67,5.56.67.67,0,0,1-.8-.46A.7.7,0,0,1,87.6,505.89Z" transform="translate(0 0)"/><polygon class="cls-9" points="172.03 265.95 174.03 284.51 172.85 308.86 226.77 302.45 231.84 265.95 225.38 266.01 172.03 265.95"/><polygon class="cls-9" points="144.06 603 155.85 603 161.46 557.53 144.06 557.53 144.06 603"/><path class="cls-6" d="M140.21,594.93,159,593.81v8.07L177,614.24a5,5,0,0,1-2.86,9.19H151.66l-3.86-8-1.51,8h-8.46Z" transform="translate(0 0)"/><polygon class="cls-9" points="210.28 603 222.07 603 227.68 557.53 210.28 557.53 210.28 603"/><path class="cls-6" d="M206.43,594.93l18.83-1.12v8.07l17.91,12.36a5,5,0,0,1-2.86,9.19H217.88l-3.86-8-1.51,8h-8.45Z" transform="translate(0 0)"/><path class="cls-6" d="M139,563.79h.13l2.27-73.93a19.33,19.33,0,0,1,.25-18.27l.32-.59-.84-3.9a24.9,24.9,0,0,1,1.42-15l2.12-69c-7.56-49,28.45-80.91,28.45-80.91H227l11.58,39.79c7.66,74.6,6.27,147.29-5.88,217.71l.33.17c1.19.41,1.7,2.07,1.14,3.69s-2,2.61-3.17,2.2l-28.49-1c-1.2-.41-1.71-2.06-1.15-3.69s2-2.61,3.18-2.2l1.94,1-4.13-71.34.45-13-.94-14.78-4.37-66.5L181,476l-16.88,88.57A3.11,3.11,0,0,1,162,570H139a3.12,3.12,0,1,1,0-6.23Z" transform="translate(0 0)"/><circle class="cls-9" cx="181.44" cy="142.01" r="28.94"/><path class="cls-6" d="M54.65,275.69A94.12,94.12,0,0,1,71.18,249.9a63.64,63.64,0,0,0-9.67,30.87,49.94,49.94,0,0,0,6.6,3.46,63.48,63.48,0,0,0,21.64,4.86,94.33,94.33,0,0,1,20.27-36,63.74,63.74,0,0,0-9.72,35.88,99.93,99.93,0,0,0,24.34-5.22c11.81-4.06,23.27-10.13,31.43-19.56,8.84-10.22,13.2-23.69,14.6-37.13s.09-27-1.24-40.41c-.63-6.4,4.7-13.77,4.07-20.17h-.42c-2.8-3.85-5.66-7.78-7-12.34s-1-9.91,2.13-13.49a14.59,14.59,0,0,1,6.43-4c.23-.3.48-.58.75-.87a59.81,59.81,0,0,1,16.53-12.36c-4.46,3.37-7.44,7.18-8.83,11.12L194.65,132a55.62,55.62,0,0,1,4.07-3.91c2.07-1.79,2.75-1.93,5.22-3.62a16.54,16.54,0,0,0-4.5,6.42c5-1.25,9.92-3.12,12.51-7.4,4.28-7.06-.81-16.59-7.92-20.81a28.31,28.31,0,0,0-32.88,3.62c-10.28-7.57-24.91-7.44-36.34-1.78a53,53,0,0,0-19,16.49,72.64,72.64,0,0,1,8.59-.6,26.25,26.25,0,0,0-11.24,4.45,76.1,76.1,0,0,0-4.08,7.12c-.8,1.61-1.57,3.24-2.28,4.89-4.4,10-7.27,20.67-10.24,31.21-3.46,12.28-7.18,24.65-13.66,35.64A80,80,0,0,1,38.8,238.91C37.25,252.8,44,266.38,54.65,275.69Z" transform="translate(0 0)"/><path class="cls-10" d="M210.58,190.3,205,188.19l-7.08-11.45-25.22,2.06-6.13,12.28-14.77,11.28,6.45,34,10,41.32,67.18-8.4-.07-31.11s12.14-24.57-7.47-33.78Z" transform="translate(0 0)"/><path class="cls-9" d="M314.13,298.2a9.6,9.6,0,0,1-12.5-5.34,8.62,8.62,0,0,1-.49-1.62l-74.91-45.33,13.69-15.79,69.33,49.52a9.66,9.66,0,0,1,4.88,18.56Z" transform="translate(0 0)"/><path class="cls-8" d="M201.27,224.42s-3.57,3.6,5.41,9.52c7.19,4.75,39.26,28.18,50.63,31.88a7.56,7.56,0,0,0,5,7.77L272.64,251c-2.23-5.17-5.79-4-7.67-2.8l-12.43-9.35L222,208.33l-18.19,13.44Z" transform="translate(0 0)"/><path class="cls-11" d="M171.33,107.07a40.3,40.3,0,0,0-4.85,35.41" transform="translate(0 0)"/><path class="cls-7" d="M24.53,622.65a1.2,1.2,0,0,0,1.18,1.19H306a1.19,1.19,0,1,0,0-2.38H25.72a1.18,1.18,0,0,0-1.19,1.18Z" transform="translate(0 0)"/><path id="a4a87c0b-578c-404f-b0e7-3c25016717c2-54" class="cls-1" d="M131.32,352.17a2.8,2.8,0,0,0-1.71,3.56l39,112.55a2.79,2.79,0,0,0,3.56,1.71l227.22-79.72a2.79,2.79,0,0,0,1.71-3.56l-39-112.55a2.8,2.8,0,0,0-3.56-1.71Z" transform="translate(0 0)"/><path class="cls-2" d="M188.83,453.75a21.63,21.63,0,0,1-20.39-14.41L147,378.66a21.6,21.6,0,0,1,13.18-27.57L275,310.5A86,86,0,0,1,384.7,362.9a21.61,21.61,0,0,1-13.17,27.58l-.17-.47.17.47L196,452.51A21.49,21.49,0,0,1,188.83,453.75Z" transform="translate(0 0)"/><path id="e6660b72-17a8-4076-a000-8bf222be7673-55" class="cls-1" d="M341.12,334.14,238.3,370.22c-1.45.51-3.25-.85-4-3s-.22-4.37,1.23-4.88l102.83-36.07c1.45-.51,3.24.85,4,3S342.57,333.64,341.12,334.14Z" transform="translate(0 0)"/><path id="f689c0b7-f689-4c10-b0b9-25ad5f15d9dd-56" class="cls-1" d="M349.08,356.81,246.25,392.89c-1.45.51-3.25-.85-4-3s-.21-4.37,1.23-4.88L346.3,348.91c1.45-.51,3.25.85,4,3S350.53,356.31,349.08,356.81Z" transform="translate(0 0)"/><path id="f731b694-f804-4551-a9ab-28894637a524-57" class="cls-1" d="M259.6,445.49" transform="translate(0 0)"/><path class="cls-12" d="M224.38,382.56a27.56,27.56,0,0,1,1.59,9.69,28.24,28.24,0,0,1-.45,4.5,27.71,27.71,0,0,1-45.33,16c-.37-.32-.74-.65-1.09-1a27.7,27.7,0,1,1,45.28-29.23Z" transform="translate(0 0)"/><circle class="cls-11" cx="199.42" cy="390.72" r="5.3"/><path class="cls-5" d="M179.1,411.79c1.36-3.16,3-8,6.69-6.22,1.84.8,5.13,3.22,6.47.4l10.47-21.91a3.4,3.4,0,0,1,4.55-1.58l.07,0L226,392.25a27.13,27.13,0,0,1-.45,4.5l-45.33,16Z" transform="translate(0 0)"/><path class="cls-9" d="M184.5,347.06A9.61,9.61,0,0,1,179,334.62a9.32,9.32,0,0,1,.75-1.52l-23.7-84.28,20.79-2.17,16.76,83.53a9.66,9.66,0,0,1-9.13,16.88Z" transform="translate(0 0)"/><path class="cls-10" d="M152.58,202.56s-5.08.18-2.57,10.64c2,8.38,9.38,60.92,15.15,71.4a7.56,7.56,0,0,0-1.64,9.11l23-9.48c1.91-5.3.43-10.11-1.74-10.53l-2.68-15.33-4-51.4-21.88-4.61Z" transform="translate(0 0)"/><path class="cls-8" d="M359.56,424.31l-31.78,1.31a4.51,4.51,0,0,1-3.6-1.55,4.42,4.42,0,0,1-1-3.71,86.54,86.54,0,0,0-2.07-39.95,4.48,4.48,0,0,1,2.2-5.23c13-6.76,25.22-7.1,36.25-1a4.54,4.54,0,0,1,2.27,3.06,141.64,141.64,0,0,1,2,43A4.49,4.49,0,0,1,359.56,424.31Z" transform="translate(0 0)"/><path class="cls-2" d="M358.21,403.51l-24.29,1a2.28,2.28,0,1,1-.2-4.56h0L358,399a2.28,2.28,0,0,1,.2,4.56Z" transform="translate(0 0)"/><path class="cls-2" d="M357.88,395.52l-24.3,1a2.28,2.28,0,1,1-.18-4.55l24.29-1a2.28,2.28,0,0,1,.19,4.56Z" transform="translate(0 0)"/><path class="cls-8" d="M940.71,175.74l-31.53-4.14a4.52,4.52,0,0,1-3.28-2.15,4.4,4.4,0,0,1-.37-3.82,86.75,86.75,0,0,0,4.79-39.72,4.47,4.47,0,0,1,3.06-4.78c14-4.43,26.06-2.69,35.89,5.2a4.52,4.52,0,0,1,1.72,3.4,141.66,141.66,0,0,1-5.35,42.75A4.51,4.51,0,0,1,940.71,175.74Z" transform="translate(0 0)"/><path class="cls-2" d="M942.94,155l-24.11-3.16a2.28,2.28,0,0,1,.6-4.52h0l24.11,3.16a2.28,2.28,0,1,1-.6,4.52Z" transform="translate(0 0)"/><path class="cls-2" d="M944,147.08l-24.12-3.16a2.28,2.28,0,1,1,.59-4.52h0l24.11,3.16a2.28,2.28,0,1,1-.58,4.52Z" transform="translate(0 0)"/><path class="cls-2" d="M520.67,236.85h-10.5v-10.5a9.5,9.5,0,1,0-19,0v10.5h-10.5a9.5,9.5,0,0,0,0,19h10.5v10.5a9.5,9.5,0,0,0,19,0v-10.5h10.5a9.5,9.5,0,0,0,0-19Z" transform="translate(0 0)"/><circle class="cls-5" cx="860.71" cy="32.52" r="10.01"/><circle class="cls-5" cx="245.71" cy="315.52" r="10.01"/></svg>